<?xml version="1.0" encoding="UTF-8" standalone="no"?>
<svg
   version="1.0"
   width="144pt"
   height="144pt"
   viewBox="0 0 144 144"
   preserveAspectRatio="xMidYMid"
   id="svg2"
   xmlns="http://www.w3.org/2000/svg"
   xmlns:svg="http://www.w3.org/2000/svg">
  <defs
     id="defs2" />
  <g
     transform="matrix(0.1,0,0,-0.1,0,144)"
     fill="#ffffff"
     stroke="none"
     id="g2">
    <path
       d="M 673,1238 C 641,1201 180,403 180,383 c 0,-10 7,-29 16,-41 14,-20 24,-22 97,-22 l 82,1 161,292 c 140,255 163,292 184,292 21,0 44,-37 184,-292 l 161,-292 82,-1 c 73,0 83,2 97,22 9,12 16,31 16,41 0,20 -461,818 -493,855 -12,12 -32,22 -47,22 -15,0 -35,-10 -47,-22 z"
       id="path1" />
    <path
       d="M 543,536 C 448,363 370,218 370,212 c 0,-5 6,-15 14,-21 11,-9 47,2 170,54 85,36 160,65 166,65 6,0 81,-29 166,-65 123,-52 159,-63 170,-54 8,6 14,16 14,21 0,13 -343,637 -350,637 -3,0 -83,-141 -177,-313 z"
       id="path2" />
  </g>
</svg>
