<?xml version="1.0" encoding="UTF-8" standalone="no"?>
<!-- Created with Inkscape (http://www.inkscape.org/) -->

<svg
   width="512"
   height="512"
   viewBox="0 0 1024 1024"
   version="1.1"
   id="svg1"
   xml:space="preserve"
   xmlns="http://www.w3.org/2000/svg"
   xmlns:svg="http://www.w3.org/2000/svg"><defs
     id="defs1" /><g
     id="layer10"
     transform="matrix(0.87719249,0,0,0.87719249,66.718777,62.904436)"
     style="display:inline"><g
       id="layer6"><path
         id="path54"
         style="baseline-shift:baseline;display:inline;overflow:visible;opacity:1;vector-effect:none;fill:#ffffff;fill-opacity:1;stroke:none;stroke-linejoin:round;paint-order:fill markers stroke;enable-background:accumulate;stop-color:#000000;stop-opacity:1"
         d="m 264.18688,115.03144 c -13.04013,0.98111 -25.75253,4.87859 -37.17491,11.47055 L -91.880669,310.61474 c -27.068021,15.63388 -43.742271,44.51849 -43.742271,75.77702 0,31.25854 16.67425,60.14521 43.742271,75.77909 L 227.01197,646.28359 c 27.07334,15.62455 60.4243,15.6214 87.49492,-0.008 16.30255,-9.41229 28.83562,-23.63039 36.22841,-40.28001 5.84893,-36.02735 -3.70454,-53.43857 -13.3236,-64.3787 -2.61542,-2.97463 -5.23614,-5.37955 -7.68614,-7.31069 h -0.002 l -189.3907,-97.7215 c -47.39337,-24.46393 -47.39337,-85.603 0,-110.06693 L 334.35634,226.40245 h 0.002 l 0.002,-0.002 c 5.93647,-4.95357 9.81173,-10.03173 12.53071,-15.02789 5.22419,-9.59958 6.43133,-20.00745 5.32612,-30.83368 -0.72417,-7.09377 -2.49816,-13.97258 -4.55605,-20.01517 -13.7809,-25.32953 -39.7411,-43.19469 -70.36042,-45.49221 -4.38369,-0.32896 -8.76726,-0.32704 -13.11397,0 z"
         transform="matrix(0.94096984,0,0,0.94654763,416.37686,327.40242)" /></g><g
       id="layer3"><path
         id="path50"
         style="baseline-shift:baseline;display:inline;overflow:visible;opacity:1;vector-effect:none;fill:#ffffff;fill-opacity:1;stroke:none;stroke-linejoin:round;paint-order:fill markers stroke;enable-background:accumulate;stop-color:#000000;stop-opacity:1"
         d="M 178.40268,-81.152106 C 117.44865,-81.147338 68.03399,-31.738148 68.022752,29.215886 V 674.21776 c 5.84e-4,3.2011 0.141815,6.3814 0.415389,9.53565 L 622.51635,364.45746 a 114.83835,115.0502 0 0 1 69.44468,-14.67022 114.83835,115.0502 0 0 1 87.35722,57.03424 114.83835,115.0502 0 0 1 13.95288,39.84313 c 33.49816,-19.86321 54.08127,-55.94212 54.08127,-94.94928 0,-39.43085 -21.0333,-75.86567 -55.17801,-95.587 L 233.58667,-66.3741 c -16.77956,-9.683702 -35.81061,-14.779552 -55.18399,-14.778006 z"
         transform="matrix(0.6535665,0,0,0.65236305,244.15003,127.14962)" /></g></g></svg>
